<?xml version="1.0" encoding="UTF-8"?>
<svg xmlns="http://www.w3.org/2000/svg" width="1328" height="758" viewBox="0 0 1328 758">
<style>text { font-family: ui-monospace, Consolas, monospace; font-size: 13px; fill: #111; }.edge-label { font-size: 12px; fill: #222; }.state-label { font-size: 11px; fill: #1a1a1a; }.title { font-size: 15px; font-weight: 600; fill: #111; }</style>
<rect x="0" y="0" width="1328" height="758" fill="#f4f1ea"/>
<text x="50" y="28" class="title">Trie · an, ant, ante, anti, at, ban, band, bank, bar, bark, barn, be, bet, on, one, or</text>
<defs>
<marker id="arrow" viewBox="0 0 10 10" refX="8" refY="5" markerWidth="7" markerHeight="7" orient="auto-start-reverse"><path d="M 0 0 L 10 5 L 0 10 z" fill="#444"/></marker>
</defs>
<path d="M 743.4 97.0 Q 528.3 180.3 301.2 221.2" fill="none" stroke="#444" stroke-width="1.2" marker-end="url(#arrow)"/>
<path d="M 780.6 113.0 L 828.3 202.8" fill="none" stroke="#444" stroke-width="1.2" marker-end="url(#arrow)"/>
<path d="M 793.1 98.1 Q 970.8 179.9 1162.2 219.9" fill="none" stroke="#444" stroke-width="1.2" marker-end="url(#arrow)"/>
<path d="M 257.7 250.8 Q 235.0 303.5 194.2 343.9" fill="none" stroke="#444" stroke-width="1.2" marker-end="url(#arrow)"/>
<path d="M 287.0 250.8 Q 309.6 303.5 350.4 343.9" fill="none" stroke="#444" stroke-width="1.2" marker-end="url(#arrow)"/>
<path d="M 822.8 246.5 Q 771.9 305.9 706.5 348.8" fill="none" stroke="#444" stroke-width="1.2" marker-end="url(#arrow)"/>
<path d="M 861.9 246.5 Q 912.7 305.9 978.1 348.8" fill="none" stroke="#444" stroke-width="1.2" marker-end="url(#arrow)"/>
<path d="M 1179.9 253.0 Q 1169.8 301.7 1139.7 341.4" fill="none" stroke="#444" stroke-width="1.2" marker-end="url(#arrow)"/>
<path d="M 1201.4 253.0 Q 1211.5 301.7 1241.6 341.4" fill="none" stroke="#444" stroke-width="1.2" marker-end="url(#arrow)"/>
<path d="M 177.3 394.7 L 177.3 475.0" fill="none" stroke="#444" stroke-width="1.2" marker-end="url(#arrow)"/>
<path d="M 666.5 387.9 Q 631.2 443.1 579.5 483.6" fill="none" stroke="#444" stroke-width="1.2" marker-end="url(#arrow)"/>
<path d="M 701.5 387.9 Q 736.8 443.1 788.5 483.6" fill="none" stroke="#444" stroke-width="1.2" marker-end="url(#arrow)"/>
<path d="M 1000.7 394.7 L 1000.7 475.0" fill="none" stroke="#444" stroke-width="1.2" marker-end="url(#arrow)"/>
<path d="M 1127.3 394.7 L 1127.3 475.0" fill="none" stroke="#444" stroke-width="1.2" marker-end="url(#arrow)"/>
<path d="M 165.3 534.4 Q 157.2 578.9 129.1 614.2" fill="none" stroke="#444" stroke-width="1.2" marker-end="url(#arrow)"/>
<path d="M 189.3 534.4 Q 197.5 578.9 225.6 614.2" fill="none" stroke="#444" stroke-width="1.2" marker-end="url(#arrow)"/>
<path d="M 545.3 534.4 Q 537.2 578.9 509.1 614.2" fill="none" stroke="#444" stroke-width="1.2" marker-end="url(#arrow)"/>
<path d="M 569.3 534.4 Q 577.5 578.9 605.6 614.2" fill="none" stroke="#444" stroke-width="1.2" marker-end="url(#arrow)"/>
<path d="M 798.7 534.4 Q 790.5 578.9 762.4 614.2" fill="none" stroke="#444" stroke-width="1.2" marker-end="url(#arrow)"/>
<path d="M 822.7 534.4 Q 830.8 578.9 858.9 614.2" fill="none" stroke="#444" stroke-width="1.2" marker-end="url(#arrow)"/>
<line x1="708.4" y1="90.0" x2="742.4" y2="90.0" stroke="#444" stroke-width="1.2" marker-end="url(#arrow)"/>
<circle cx="768.4" cy="90.0" r="24.0" fill="#ffffff" stroke="#111" stroke-width="1.5"/>
<text x="768.4" y="90.0" text-anchor="middle" dominant-baseline="central" class="state-label" font-size="10px">{ε}</text>
<circle cx="272.3" cy="229.3" r="24.0" fill="#ffffff" stroke="#111" stroke-width="1.5"/>
<text x="272.3" y="229.3" text-anchor="middle" dominant-baseline="central" class="state-label" font-size="10px">{a}</text>
<circle cx="842.3" cy="229.3" r="24.0" fill="#ffffff" stroke="#111" stroke-width="1.5"/>
<text x="842.3" y="229.3" text-anchor="middle" dominant-baseline="central" class="state-label" font-size="10px">{b}</text>
<circle cx="1190.7" cy="229.3" r="24.0" fill="#ffffff" stroke="#111" stroke-width="1.5"/>
<text x="1190.7" y="229.3" text-anchor="middle" dominant-baseline="central" class="state-label" font-size="10px">{o}</text>
<circle cx="177.3" cy="368.7" r="28.0" fill="none" stroke="#111" stroke-width="1.5"/>
<circle cx="177.3" cy="368.7" r="24.0" fill="#ffffff" stroke="#111" stroke-width="1.5"/>
<text x="177.3" y="368.7" text-anchor="middle" dominant-baseline="central" class="state-label" font-size="10px">{an}</text>
<circle cx="367.3" cy="368.7" r="28.0" fill="none" stroke="#111" stroke-width="1.5"/>
<circle cx="367.3" cy="368.7" r="24.0" fill="#ffffff" stroke="#111" stroke-width="1.5"/>
<text x="367.3" y="368.7" text-anchor="middle" dominant-baseline="central" class="state-label" font-size="10px">{at}</text>
<circle cx="684.0" cy="368.7" r="24.0" fill="#ffffff" stroke="#111" stroke-width="1.5"/>
<text x="684.0" y="368.7" text-anchor="middle" dominant-baseline="central" class="state-label" font-size="10px">{ba}</text>
<circle cx="1000.7" cy="368.7" r="28.0" fill="none" stroke="#111" stroke-width="1.5"/>
<circle cx="1000.7" cy="368.7" r="24.0" fill="#ffffff" stroke="#111" stroke-width="1.5"/>
<text x="1000.7" y="368.7" text-anchor="middle" dominant-baseline="central" class="state-label" font-size="10px">{be}</text>
<circle cx="1127.3" cy="368.7" r="28.0" fill="none" stroke="#111" stroke-width="1.5"/>
<circle cx="1127.3" cy="368.7" r="24.0" fill="#ffffff" stroke="#111" stroke-width="1.5"/>
<text x="1127.3" y="368.7" text-anchor="middle" dominant-baseline="central" class="state-label" font-size="10px">{on}</text>
<circle cx="1254.0" cy="368.7" r="28.0" fill="none" stroke="#111" stroke-width="1.5"/>
<circle cx="1254.0" cy="368.7" r="24.0" fill="#ffffff" stroke="#111" stroke-width="1.5"/>
<text x="1254.0" y="368.7" text-anchor="middle" dominant-baseline="central" class="state-label" font-size="10px">{or}</text>
<circle cx="177.3" cy="508.0" r="31.0" fill="none" stroke="#111" stroke-width="1.5"/>
<circle cx="177.3" cy="508.0" r="27.0" fill="#ffffff" stroke="#111" stroke-width="1.5"/>
<text x="177.3" y="508.0" text-anchor="middle" dominant-baseline="central" class="state-label" font-size="10px">{ant}</text>
<circle cx="557.3" cy="508.0" r="31.0" fill="none" stroke="#111" stroke-width="1.5"/>
<circle cx="557.3" cy="508.0" r="27.0" fill="#ffffff" stroke="#111" stroke-width="1.5"/>
<text x="557.3" y="508.0" text-anchor="middle" dominant-baseline="central" class="state-label" font-size="10px">{ban}</text>
<circle cx="810.7" cy="508.0" r="31.0" fill="none" stroke="#111" stroke-width="1.5"/>
<circle cx="810.7" cy="508.0" r="27.0" fill="#ffffff" stroke="#111" stroke-width="1.5"/>
<text x="810.7" y="508.0" text-anchor="middle" dominant-baseline="central" class="state-label" font-size="10px">{bar}</text>
<circle cx="1000.7" cy="508.0" r="31.0" fill="none" stroke="#111" stroke-width="1.5"/>
<circle cx="1000.7" cy="508.0" r="27.0" fill="#ffffff" stroke="#111" stroke-width="1.5"/>
<text x="1000.7" y="508.0" text-anchor="middle" dominant-baseline="central" class="state-label" font-size="10px">{bet}</text>
<circle cx="1127.3" cy="508.0" r="31.0" fill="none" stroke="#111" stroke-width="1.5"/>
<circle cx="1127.3" cy="508.0" r="27.0" fill="#ffffff" stroke="#111" stroke-width="1.5"/>
<text x="1127.3" y="508.0" text-anchor="middle" dominant-baseline="central" class="state-label" font-size="10px">{one}</text>
<circle cx="114.0" cy="647.3" r="34.4" fill="none" stroke="#111" stroke-width="1.5"/>
<circle cx="114.0" cy="647.3" r="30.4" fill="#ffffff" stroke="#111" stroke-width="1.5"/>
<text x="114.0" y="647.3" text-anchor="middle" dominant-baseline="central" class="state-label" font-size="10px">{ante}</text>
<circle cx="240.7" cy="647.3" r="34.4" fill="none" stroke="#111" stroke-width="1.5"/>
<circle cx="240.7" cy="647.3" r="30.4" fill="#ffffff" stroke="#111" stroke-width="1.5"/>
<text x="240.7" y="647.3" text-anchor="middle" dominant-baseline="central" class="state-label" font-size="10px">{anti}</text>
<circle cx="494.0" cy="647.3" r="34.4" fill="none" stroke="#111" stroke-width="1.5"/>
<circle cx="494.0" cy="647.3" r="30.4" fill="#ffffff" stroke="#111" stroke-width="1.5"/>
<text x="494.0" y="647.3" text-anchor="middle" dominant-baseline="central" class="state-label" font-size="10px">{band}</text>
<circle cx="620.7" cy="647.3" r="34.4" fill="none" stroke="#111" stroke-width="1.5"/>
<circle cx="620.7" cy="647.3" r="30.4" fill="#ffffff" stroke="#111" stroke-width="1.5"/>
<text x="620.7" y="647.3" text-anchor="middle" dominant-baseline="central" class="state-label" font-size="10px">{bank}</text>
<circle cx="747.3" cy="647.3" r="34.4" fill="none" stroke="#111" stroke-width="1.5"/>
<circle cx="747.3" cy="647.3" r="30.4" fill="#ffffff" stroke="#111" stroke-width="1.5"/>
<text x="747.3" y="647.3" text-anchor="middle" dominant-baseline="central" class="state-label" font-size="10px">{bark}</text>
<circle cx="874.0" cy="647.3" r="34.4" fill="none" stroke="#111" stroke-width="1.5"/>
<circle cx="874.0" cy="647.3" r="30.4" fill="#ffffff" stroke="#111" stroke-width="1.5"/>
<text x="874.0" y="647.3" text-anchor="middle" dominant-baseline="central" class="state-label" font-size="10px">{barn}</text>
<text x="521.0" y="154.3" text-anchor="middle" dominant-baseline="central" class="edge-label" stroke="#f4f1ea" stroke-width="5" paint-order="stroke">a</text>
<text x="521.0" y="154.3" text-anchor="middle" dominant-baseline="central" class="edge-label">a</text>
<text x="818.6" y="150.4" text-anchor="middle" dominant-baseline="central" class="edge-label" stroke="#f4f1ea" stroke-width="5" paint-order="stroke">b</text>
<text x="818.6" y="150.4" text-anchor="middle" dominant-baseline="central" class="edge-label">b</text>
<text x="969.2" y="184.7" text-anchor="middle" dominant-baseline="central" class="edge-label" stroke="#f4f1ea" stroke-width="5" paint-order="stroke">o</text>
<text x="969.2" y="184.7" text-anchor="middle" dominant-baseline="central" class="edge-label">o</text>
<text x="217.3" y="291.4" text-anchor="middle" dominant-baseline="central" class="edge-label" stroke="#f4f1ea" stroke-width="5" paint-order="stroke">n</text>
<text x="217.3" y="291.4" text-anchor="middle" dominant-baseline="central" class="edge-label">n</text>
<text x="327.4" y="291.4" text-anchor="middle" dominant-baseline="central" class="edge-label" stroke="#f4f1ea" stroke-width="5" paint-order="stroke">t</text>
<text x="327.4" y="291.4" text-anchor="middle" dominant-baseline="central" class="edge-label">t</text>
<text x="757.7" y="289.8" text-anchor="middle" dominant-baseline="central" class="edge-label" stroke="#f4f1ea" stroke-width="5" paint-order="stroke">a</text>
<text x="757.7" y="289.8" text-anchor="middle" dominant-baseline="central" class="edge-label">a</text>
<text x="926.9" y="289.8" text-anchor="middle" dominant-baseline="central" class="edge-label" stroke="#f4f1ea" stroke-width="5" paint-order="stroke">e</text>
<text x="926.9" y="289.8" text-anchor="middle" dominant-baseline="central" class="edge-label">e</text>
<text x="1150.3" y="292.8" text-anchor="middle" dominant-baseline="central" class="edge-label" stroke="#f4f1ea" stroke-width="5" paint-order="stroke">n</text>
<text x="1150.3" y="292.8" text-anchor="middle" dominant-baseline="central" class="edge-label">n</text>
<text x="1231.1" y="292.8" text-anchor="middle" dominant-baseline="central" class="edge-label" stroke="#f4f1ea" stroke-width="5" paint-order="stroke">r</text>
<text x="1231.1" y="292.8" text-anchor="middle" dominant-baseline="central" class="edge-label">r</text>
<text x="161.3" y="434.8" text-anchor="middle" dominant-baseline="central" class="edge-label" stroke="#f4f1ea" stroke-width="5" paint-order="stroke">t</text>
<text x="161.3" y="434.8" text-anchor="middle" dominant-baseline="central" class="edge-label">t</text>
<text x="615.3" y="428.7" text-anchor="middle" dominant-baseline="central" class="edge-label" stroke="#f4f1ea" stroke-width="5" paint-order="stroke">n</text>
<text x="615.3" y="428.7" text-anchor="middle" dominant-baseline="central" class="edge-label">n</text>
<text x="752.7" y="428.7" text-anchor="middle" dominant-baseline="central" class="edge-label" stroke="#f4f1ea" stroke-width="5" paint-order="stroke">r</text>
<text x="752.7" y="428.7" text-anchor="middle" dominant-baseline="central" class="edge-label">r</text>
<text x="984.7" y="434.8" text-anchor="middle" dominant-baseline="central" class="edge-label" stroke="#f4f1ea" stroke-width="5" paint-order="stroke">t</text>
<text x="984.7" y="434.8" text-anchor="middle" dominant-baseline="central" class="edge-label">t</text>
<text x="1111.3" y="434.8" text-anchor="middle" dominant-baseline="central" class="edge-label" stroke="#f4f1ea" stroke-width="5" paint-order="stroke">e</text>
<text x="1111.3" y="434.8" text-anchor="middle" dominant-baseline="central" class="edge-label">e</text>
<text x="137.6" y="570.0" text-anchor="middle" dominant-baseline="central" class="edge-label" stroke="#f4f1ea" stroke-width="5" paint-order="stroke">e</text>
<text x="137.6" y="570.0" text-anchor="middle" dominant-baseline="central" class="edge-label">e</text>
<text x="217.0" y="570.0" text-anchor="middle" dominant-baseline="central" class="edge-label" stroke="#f4f1ea" stroke-width="5" paint-order="stroke">i</text>
<text x="217.0" y="570.0" text-anchor="middle" dominant-baseline="central" class="edge-label">i</text>
<text x="517.6" y="570.0" text-anchor="middle" dominant-baseline="central" class="edge-label" stroke="#f4f1ea" stroke-width="5" paint-order="stroke">d</text>
<text x="517.6" y="570.0" text-anchor="middle" dominant-baseline="central" class="edge-label">d</text>
<text x="597.0" y="570.0" text-anchor="middle" dominant-baseline="central" class="edge-label" stroke="#f4f1ea" stroke-width="5" paint-order="stroke">k</text>
<text x="597.0" y="570.0" text-anchor="middle" dominant-baseline="central" class="edge-label">k</text>
<text x="771.0" y="570.0" text-anchor="middle" dominant-baseline="central" class="edge-label" stroke="#f4f1ea" stroke-width="5" paint-order="stroke">k</text>
<text x="771.0" y="570.0" text-anchor="middle" dominant-baseline="central" class="edge-label">k</text>
<text x="850.4" y="570.0" text-anchor="middle" dominant-baseline="central" class="edge-label" stroke="#f4f1ea" stroke-width="5" paint-order="stroke">n</text>
<text x="850.4" y="570.0" text-anchor="middle" dominant-baseline="central" class="edge-label">n</text>
<text x="724.4" y="74.0" text-anchor="middle" dominant-baseline="central" class="edge-label" stroke="#f4f1ea" stroke-width="5" paint-order="stroke">start</text>
<text x="724.4" y="74.0" text-anchor="middle" dominant-baseline="central" class="edge-label">start</text>
</svg>