<?xml version="1.0" encoding="UTF-8"?>
<svg xmlns="http://www.w3.org/2000/svg" width="350" height="500" viewBox="0 0 350 500">
<style>text { font-family: ui-monospace, Consolas, monospace; font-size: 13px; fill: #111; }.edge-label { font-size: 12px; fill: #333; }.title { font-size: 15px; font-weight: 600; }</style>
<text x="50" y="28" class="title">Trie · cat, hat, map</text>
<defs>
<marker id="arrow" viewBox="0 0 10 10" refX="8" refY="5" markerWidth="7" markerHeight="7" orient="auto-start-reverse"><path d="M 0 0 L 10 5 L 0 10 z" fill="#444"/></marker>
</defs>
<circle cx="170.0" cy="90.0" r="20.0" fill="#f8f8f8" stroke="#111" stroke-width="1.5"/>
<text x="170.0" y="90.0" text-anchor="middle" dominant-baseline="central">q0</text>
<circle cx="100.0" cy="175.0" r="20.0" fill="#f8f8f8" stroke="#111" stroke-width="1.5"/>
<text x="100.0" y="175.0" text-anchor="middle" dominant-baseline="central">q1</text>
<circle cx="170.0" cy="175.0" r="20.0" fill="#f8f8f8" stroke="#111" stroke-width="1.5"/>
<text x="170.0" y="175.0" text-anchor="middle" dominant-baseline="central">q2</text>
<circle cx="240.0" cy="175.0" r="20.0" fill="#f8f8f8" stroke="#111" stroke-width="1.5"/>
<text x="240.0" y="175.0" text-anchor="middle" dominant-baseline="central">q3</text>
<circle cx="100.0" cy="260.0" r="20.0" fill="#f8f8f8" stroke="#111" stroke-width="1.5"/>
<text x="100.0" y="260.0" text-anchor="middle" dominant-baseline="central">q4</text>
<circle cx="170.0" cy="260.0" r="20.0" fill="#f8f8f8" stroke="#111" stroke-width="1.5"/>
<text x="170.0" y="260.0" text-anchor="middle" dominant-baseline="central">q5</text>
<circle cx="240.0" cy="260.0" r="20.0" fill="#f8f8f8" stroke="#111" stroke-width="1.5"/>
<text x="240.0" y="260.0" text-anchor="middle" dominant-baseline="central">q6</text>
<circle cx="100.0" cy="345.0" r="24.0" fill="none" stroke="#111" stroke-width="1.5"/>
<circle cx="100.0" cy="345.0" r="20.0" fill="#f8f8f8" stroke="#111" stroke-width="1.5"/>
<text x="100.0" y="345.0" text-anchor="middle" dominant-baseline="central">q7</text>
<circle cx="170.0" cy="345.0" r="24.0" fill="none" stroke="#111" stroke-width="1.5"/>
<circle cx="170.0" cy="345.0" r="20.0" fill="#f8f8f8" stroke="#111" stroke-width="1.5"/>
<text x="170.0" y="345.0" text-anchor="middle" dominant-baseline="central">q8</text>
<circle cx="240.0" cy="345.0" r="24.0" fill="none" stroke="#111" stroke-width="1.5"/>
<circle cx="240.0" cy="345.0" r="20.0" fill="#f8f8f8" stroke="#111" stroke-width="1.5"/>
<text x="240.0" y="345.0" text-anchor="middle" dominant-baseline="central">q9</text>
<path d="M 156.0 107.0 Q 150.2 142.4 116.5 154.9" fill="none" stroke="#444" stroke-width="1.2" marker-end="url(#arrow)"/>
<text x="150.2" y="142.4" text-anchor="middle" class="edge-label">c</text>
<line x1="170.0" y1="112.0" x2="170.0" y2="149.0" stroke="#444" stroke-width="1.2" marker-end="url(#arrow)"/>
<text x="170.0" y="130.5" text-anchor="middle" class="edge-label">h</text>
<path d="M 184.0 107.0 Q 189.8 142.4 223.5 154.9" fill="none" stroke="#444" stroke-width="1.2" marker-end="url(#arrow)"/>
<text x="189.8" y="142.4" text-anchor="middle" class="edge-label">m</text>
<line x1="100.0" y1="197.0" x2="100.0" y2="234.0" stroke="#444" stroke-width="1.2" marker-end="url(#arrow)"/>
<text x="100.0" y="215.5" text-anchor="middle" class="edge-label">a</text>
<line x1="170.0" y1="197.0" x2="170.0" y2="234.0" stroke="#444" stroke-width="1.2" marker-end="url(#arrow)"/>
<text x="170.0" y="215.5" text-anchor="middle" class="edge-label">a</text>
<line x1="240.0" y1="197.0" x2="240.0" y2="234.0" stroke="#444" stroke-width="1.2" marker-end="url(#arrow)"/>
<text x="240.0" y="215.5" text-anchor="middle" class="edge-label">a</text>
<line x1="100.0" y1="282.0" x2="100.0" y2="319.0" stroke="#444" stroke-width="1.2" marker-end="url(#arrow)"/>
<text x="100.0" y="300.5" text-anchor="middle" class="edge-label">t</text>
<line x1="170.0" y1="282.0" x2="170.0" y2="319.0" stroke="#444" stroke-width="1.2" marker-end="url(#arrow)"/>
<text x="170.0" y="300.5" text-anchor="middle" class="edge-label">t</text>
<line x1="240.0" y1="282.0" x2="240.0" y2="319.0" stroke="#444" stroke-width="1.2" marker-end="url(#arrow)"/>
<text x="240.0" y="300.5" text-anchor="middle" class="edge-label">p</text>
<line x1="122.0" y1="90.0" x2="148.0" y2="90.0" stroke="#444" stroke-width="1.2" marker-end="url(#arrow)"/>
<text x="116.0" y="76.0" text-anchor="middle" class="edge-label">start</text>
</svg>