<?xml version="1.0" encoding="UTF-8"?>
<svg xmlns="http://www.w3.org/2000/svg" width="390" height="455" viewBox="0 0 390 455">
<style>text { font-family: ui-monospace, Consolas, monospace; font-size: 13px; fill: #111; }.edge-label { font-size: 12px; fill: #333; }.title { font-size: 15px; font-weight: 600; }</style>
<text x="50" y="28" class="title">Minimal DFA · cat, hat, map</text>
<defs>
<marker id="arrow" viewBox="0 0 10 10" refX="8" refY="5" markerWidth="7" markerHeight="7" orient="auto-start-reverse"><path d="M 0 0 L 10 5 L 0 10 z" fill="#444"/></marker>
</defs>
<circle cx="135.0" cy="90.0" r="20.0" fill="#f8f8f8" stroke="#111" stroke-width="1.5"/>
<text x="135.0" y="90.0" text-anchor="middle" dominant-baseline="central">q0</text>
<circle cx="100.0" cy="175.0" r="20.0" fill="#f8f8f8" stroke="#111" stroke-width="1.5"/>
<text x="100.0" y="175.0" text-anchor="middle" dominant-baseline="central">q1</text>
<circle cx="170.0" cy="175.0" r="20.0" fill="#f8f8f8" stroke="#111" stroke-width="1.5"/>
<text x="170.0" y="175.0" text-anchor="middle" dominant-baseline="central">q2</text>
<circle cx="100.0" cy="260.0" r="20.0" fill="#f8f8f8" stroke="#111" stroke-width="1.5"/>
<text x="100.0" y="260.0" text-anchor="middle" dominant-baseline="central">q3</text>
<circle cx="170.0" cy="260.0" r="20.0" fill="#f8f8f8" stroke="#111" stroke-width="1.5"/>
<text x="170.0" y="260.0" text-anchor="middle" dominant-baseline="central">q4</text>
<circle cx="135.0" cy="345.0" r="24.0" fill="none" stroke="#111" stroke-width="1.5"/>
<circle cx="135.0" cy="345.0" r="20.0" fill="#f8f8f8" stroke="#111" stroke-width="1.5"/>
<text x="135.0" y="345.0" text-anchor="middle" dominant-baseline="central">q5</text>
<path d="M 126.6 110.3 Q 128.4 134.8 109.9 151.0" fill="none" stroke="#444" stroke-width="1.2" marker-end="url(#arrow)"/>
<text x="128.4" y="134.8" text-anchor="middle" class="edge-label">c</text>
<path d="M 126.6 110.3 Q 108.1 126.5 109.9 151.0" fill="none" stroke="#444" stroke-width="1.2" marker-end="url(#arrow)"/>
<text x="108.1" y="126.5" text-anchor="middle" class="edge-label">h</text>
<line x1="143.4" y1="110.3" x2="160.1" y2="151.0" stroke="#444" stroke-width="1.2" marker-end="url(#arrow)"/>
<text x="151.7" y="130.7" text-anchor="middle" class="edge-label">m</text>
<line x1="100.0" y1="197.0" x2="100.0" y2="234.0" stroke="#444" stroke-width="1.2" marker-end="url(#arrow)"/>
<text x="100.0" y="215.5" text-anchor="middle" class="edge-label">a</text>
<line x1="170.0" y1="197.0" x2="170.0" y2="234.0" stroke="#444" stroke-width="1.2" marker-end="url(#arrow)"/>
<text x="170.0" y="215.5" text-anchor="middle" class="edge-label">a</text>
<line x1="108.4" y1="280.3" x2="125.1" y2="321.0" stroke="#444" stroke-width="1.2" marker-end="url(#arrow)"/>
<text x="116.7" y="300.7" text-anchor="middle" class="edge-label">t</text>
<line x1="161.6" y1="280.3" x2="144.9" y2="321.0" stroke="#444" stroke-width="1.2" marker-end="url(#arrow)"/>
<text x="153.3" y="300.7" text-anchor="middle" class="edge-label">p</text>
<line x1="87.0" y1="90.0" x2="113.0" y2="90.0" stroke="#444" stroke-width="1.2" marker-end="url(#arrow)"/>
</svg>